<mxfile host="app.diagrams.net" agent="Mozilla/5.0 (Windows NT 10.0; Win64; x64) AppleWebKit/537.36 (KHTML, like Gecko) Chrome/139.0.0.0 Safari/537.36" version="28.1.0">
  <diagram name="Page-1" id="AMDKf5HiNLxbk7o1Knql">
    <mxGraphModel dx="1426" dy="777" grid="1" gridSize="10" guides="1" tooltips="1" connect="1" arrows="1" fold="1" page="1" pageScale="1" pageWidth="850" pageHeight="1100" math="0" shadow="0">
      <root>
        <mxCell id="0" />
        <mxCell id="1" parent="0" />
        <mxCell id="gzFLh29zP8rXuj3Cvyc2-1" value="" style="ellipse;whiteSpace=wrap;html=1;aspect=fixed;" vertex="1" parent="1">
          <mxGeometry x="10" y="10" width="400" height="400" as="geometry" />
        </mxCell>
        <mxCell id="gzFLh29zP8rXuj3Cvyc2-3" value="Artificial&amp;nbsp;&lt;div&gt;Intelligence&lt;/div&gt;" style="text;html=1;align=center;verticalAlign=middle;whiteSpace=wrap;rounded=0;fontSize=16;fontStyle=1" vertex="1" parent="1">
          <mxGeometry x="180" y="30" width="60" height="30" as="geometry" />
        </mxCell>
        <mxCell id="gzFLh29zP8rXuj3Cvyc2-6" value="" style="ellipse;whiteSpace=wrap;html=1;aspect=fixed;" vertex="1" parent="1">
          <mxGeometry x="80" y="80" width="260" height="260" as="geometry" />
        </mxCell>
        <mxCell id="gzFLh29zP8rXuj3Cvyc2-10" value="Machine Learning" style="text;html=1;align=center;verticalAlign=middle;whiteSpace=wrap;rounded=0;fontSize=16;fontStyle=1" vertex="1" parent="1">
          <mxGeometry x="180" y="110" width="60" height="30" as="geometry" />
        </mxCell>
        <mxCell id="gzFLh29zP8rXuj3Cvyc2-13" value="" style="group" vertex="1" connectable="0" parent="1">
          <mxGeometry x="155" y="155" width="110" height="110" as="geometry" />
        </mxCell>
        <mxCell id="gzFLh29zP8rXuj3Cvyc2-11" value="" style="ellipse;whiteSpace=wrap;html=1;aspect=fixed;" vertex="1" parent="gzFLh29zP8rXuj3Cvyc2-13">
          <mxGeometry width="110" height="110" as="geometry" />
        </mxCell>
        <mxCell id="gzFLh29zP8rXuj3Cvyc2-12" value="Deep&lt;div&gt;Learning&lt;/div&gt;" style="text;html=1;align=center;verticalAlign=middle;whiteSpace=wrap;rounded=0;fontSize=16;fontStyle=1" vertex="1" parent="gzFLh29zP8rXuj3Cvyc2-13">
          <mxGeometry x="25" y="40" width="60" height="30" as="geometry" />
        </mxCell>
      </root>
    </mxGraphModel>
  </diagram>
</mxfile>
